<mxfile host="app.diagrams.net" agent="Mozilla/5.0 (X11; Linux x86_64; rv:128.0) Gecko/20100101 Firefox/128.0" version="26.0.11">
  <diagram name="Page-1" id="sJQhUPBWpJW9KDEtCvfj">
    <mxGraphModel dx="1138" dy="633" grid="1" gridSize="10" guides="1" tooltips="1" connect="1" arrows="1" fold="1" page="1" pageScale="1" pageWidth="850" pageHeight="1100" math="0" shadow="0">
      <root>
        <mxCell id="0" />
        <mxCell id="1" parent="0" />
        <mxCell id="W6q4LjrihfKNPNCk5p_2-123" value="" style="group" vertex="1" connectable="0" parent="1">
          <mxGeometry width="700" height="650" as="geometry" />
        </mxCell>
        <mxCell id="W6q4LjrihfKNPNCk5p_2-118" value="" style="rounded=0;whiteSpace=wrap;html=1;" vertex="1" parent="W6q4LjrihfKNPNCk5p_2-123">
          <mxGeometry width="700" height="650" as="geometry" />
        </mxCell>
        <mxCell id="W6q4LjrihfKNPNCk5p_2-57" value="Suscripcion" style="rounded=0;whiteSpace=wrap;html=1;fillColor=#d5e8d4;strokeColor=#82b366;" vertex="1" parent="W6q4LjrihfKNPNCk5p_2-123">
          <mxGeometry x="290" y="300" width="120" height="60" as="geometry" />
        </mxCell>
        <mxCell id="W6q4LjrihfKNPNCk5p_2-63" style="edgeStyle=orthogonalEdgeStyle;rounded=0;orthogonalLoop=1;jettySize=auto;html=1;exitX=0;exitY=0.5;exitDx=0;exitDy=0;entryX=0.5;entryY=1;entryDx=0;entryDy=0;endArrow=none;startFill=0;" edge="1" parent="W6q4LjrihfKNPNCk5p_2-123" source="W6q4LjrihfKNPNCk5p_2-59" target="W6q4LjrihfKNPNCk5p_2-60">
          <mxGeometry relative="1" as="geometry" />
        </mxCell>
        <mxCell id="W6q4LjrihfKNPNCk5p_2-67" style="edgeStyle=orthogonalEdgeStyle;rounded=0;orthogonalLoop=1;jettySize=auto;html=1;exitX=1;exitY=0.5;exitDx=0;exitDy=0;entryX=0.5;entryY=0;entryDx=0;entryDy=0;endArrow=none;startFill=0;" edge="1" parent="W6q4LjrihfKNPNCk5p_2-123" source="W6q4LjrihfKNPNCk5p_2-59" target="W6q4LjrihfKNPNCk5p_2-64">
          <mxGeometry relative="1" as="geometry" />
        </mxCell>
        <mxCell id="W6q4LjrihfKNPNCk5p_2-68" style="rounded=0;orthogonalLoop=1;jettySize=auto;html=1;exitX=0.5;exitY=1;exitDx=0;exitDy=0;entryX=0.5;entryY=0;entryDx=0;entryDy=0;endArrow=none;startFill=0;" edge="1" parent="W6q4LjrihfKNPNCk5p_2-123" source="W6q4LjrihfKNPNCk5p_2-59" target="W6q4LjrihfKNPNCk5p_2-65">
          <mxGeometry relative="1" as="geometry" />
        </mxCell>
        <mxCell id="W6q4LjrihfKNPNCk5p_2-69" style="rounded=0;orthogonalLoop=1;jettySize=auto;html=1;exitX=0.5;exitY=0;exitDx=0;exitDy=0;entryX=0.5;entryY=0;entryDx=0;entryDy=0;endArrow=none;startFill=0;" edge="1" parent="W6q4LjrihfKNPNCk5p_2-123" source="W6q4LjrihfKNPNCk5p_2-59" target="W6q4LjrihfKNPNCk5p_2-66">
          <mxGeometry relative="1" as="geometry" />
        </mxCell>
        <mxCell id="W6q4LjrihfKNPNCk5p_2-59" value="" style="triangle;whiteSpace=wrap;html=1;rotation=90;fillColor=#fff2cc;strokeColor=#d6b656;" vertex="1" parent="W6q4LjrihfKNPNCk5p_2-123">
          <mxGeometry x="320" y="420" width="60" height="80" as="geometry" />
        </mxCell>
        <mxCell id="W6q4LjrihfKNPNCk5p_2-62" style="edgeStyle=orthogonalEdgeStyle;rounded=0;orthogonalLoop=1;jettySize=auto;html=1;exitX=0.5;exitY=0;exitDx=0;exitDy=0;entryX=0.5;entryY=1;entryDx=0;entryDy=0;endArrow=none;startFill=0;" edge="1" parent="W6q4LjrihfKNPNCk5p_2-123" source="W6q4LjrihfKNPNCk5p_2-60" target="W6q4LjrihfKNPNCk5p_2-57">
          <mxGeometry relative="1" as="geometry" />
        </mxCell>
        <mxCell id="W6q4LjrihfKNPNCk5p_2-60" value="" style="ellipse;whiteSpace=wrap;html=1;aspect=fixed;fillColor=#fff2cc;strokeColor=#d6b656;" vertex="1" parent="W6q4LjrihfKNPNCk5p_2-123">
          <mxGeometry x="340" y="400" width="20" height="20" as="geometry" />
        </mxCell>
        <mxCell id="W6q4LjrihfKNPNCk5p_2-64" value="Estandar" style="rounded=0;whiteSpace=wrap;html=1;fillColor=#d5e8d4;strokeColor=#82b366;" vertex="1" parent="W6q4LjrihfKNPNCk5p_2-123">
          <mxGeometry x="290" y="550" width="120" height="60" as="geometry" />
        </mxCell>
        <mxCell id="W6q4LjrihfKNPNCk5p_2-65" value="Basica" style="rounded=0;whiteSpace=wrap;html=1;fillColor=#d5e8d4;strokeColor=#82b366;" vertex="1" parent="W6q4LjrihfKNPNCk5p_2-123">
          <mxGeometry x="130" y="550" width="120" height="60" as="geometry" />
        </mxCell>
        <mxCell id="W6q4LjrihfKNPNCk5p_2-66" value="Premium" style="rounded=0;whiteSpace=wrap;html=1;fillColor=#d5e8d4;strokeColor=#82b366;" vertex="1" parent="W6q4LjrihfKNPNCk5p_2-123">
          <mxGeometry x="450" y="550" width="120" height="60" as="geometry" />
        </mxCell>
        <mxCell id="W6q4LjrihfKNPNCk5p_2-71" value="" style="shape=requiredInterface;html=1;verticalLabelPosition=bottom;sketch=0;rotation=90;" vertex="1" parent="W6q4LjrihfKNPNCk5p_2-123">
          <mxGeometry x="330" y="390" width="40" height="200" as="geometry" />
        </mxCell>
        <mxCell id="W6q4LjrihfKNPNCk5p_2-78" value="Suscripcion" style="shape=table;startSize=30;container=1;collapsible=1;childLayout=tableLayout;fixedRows=1;rowLines=0;fontStyle=1;align=center;resizeLast=1;html=1;" vertex="1" parent="W6q4LjrihfKNPNCk5p_2-123">
          <mxGeometry x="260" y="40" width="180" height="120" as="geometry" />
        </mxCell>
        <mxCell id="W6q4LjrihfKNPNCk5p_2-79" value="" style="shape=tableRow;horizontal=0;startSize=0;swimlaneHead=0;swimlaneBody=0;fillColor=none;collapsible=0;dropTarget=0;points=[[0,0.5],[1,0.5]];portConstraint=eastwest;top=0;left=0;right=0;bottom=1;" vertex="1" parent="W6q4LjrihfKNPNCk5p_2-78">
          <mxGeometry y="30" width="180" height="30" as="geometry" />
        </mxCell>
        <mxCell id="W6q4LjrihfKNPNCk5p_2-80" value="PK" style="shape=partialRectangle;connectable=0;fillColor=none;top=0;left=0;bottom=0;right=0;fontStyle=1;overflow=hidden;whiteSpace=wrap;html=1;" vertex="1" parent="W6q4LjrihfKNPNCk5p_2-79">
          <mxGeometry width="30" height="30" as="geometry">
            <mxRectangle width="30" height="30" as="alternateBounds" />
          </mxGeometry>
        </mxCell>
        <mxCell id="W6q4LjrihfKNPNCk5p_2-81" value="id" style="shape=partialRectangle;connectable=0;fillColor=none;top=0;left=0;bottom=0;right=0;align=left;spacingLeft=6;fontStyle=5;overflow=hidden;whiteSpace=wrap;html=1;" vertex="1" parent="W6q4LjrihfKNPNCk5p_2-79">
          <mxGeometry x="30" width="150" height="30" as="geometry">
            <mxRectangle width="150" height="30" as="alternateBounds" />
          </mxGeometry>
        </mxCell>
        <mxCell id="W6q4LjrihfKNPNCk5p_2-82" value="" style="shape=tableRow;horizontal=0;startSize=0;swimlaneHead=0;swimlaneBody=0;fillColor=none;collapsible=0;dropTarget=0;points=[[0,0.5],[1,0.5]];portConstraint=eastwest;top=0;left=0;right=0;bottom=0;" vertex="1" parent="W6q4LjrihfKNPNCk5p_2-78">
          <mxGeometry y="60" width="180" height="30" as="geometry" />
        </mxCell>
        <mxCell id="W6q4LjrihfKNPNCk5p_2-83" value="" style="shape=partialRectangle;connectable=0;fillColor=none;top=0;left=0;bottom=0;right=0;editable=1;overflow=hidden;whiteSpace=wrap;html=1;" vertex="1" parent="W6q4LjrihfKNPNCk5p_2-82">
          <mxGeometry width="30" height="30" as="geometry">
            <mxRectangle width="30" height="30" as="alternateBounds" />
          </mxGeometry>
        </mxCell>
        <mxCell id="W6q4LjrihfKNPNCk5p_2-84" value="" style="shape=partialRectangle;connectable=0;fillColor=none;top=0;left=0;bottom=0;right=0;align=left;spacingLeft=6;overflow=hidden;whiteSpace=wrap;html=1;" vertex="1" parent="W6q4LjrihfKNPNCk5p_2-82">
          <mxGeometry x="30" width="150" height="30" as="geometry">
            <mxRectangle width="150" height="30" as="alternateBounds" />
          </mxGeometry>
        </mxCell>
        <mxCell id="W6q4LjrihfKNPNCk5p_2-85" value="" style="shape=tableRow;horizontal=0;startSize=0;swimlaneHead=0;swimlaneBody=0;fillColor=none;collapsible=0;dropTarget=0;points=[[0,0.5],[1,0.5]];portConstraint=eastwest;top=0;left=0;right=0;bottom=0;" vertex="1" parent="W6q4LjrihfKNPNCk5p_2-78">
          <mxGeometry y="90" width="180" height="30" as="geometry" />
        </mxCell>
        <mxCell id="W6q4LjrihfKNPNCk5p_2-86" value="" style="shape=partialRectangle;connectable=0;fillColor=none;top=0;left=0;bottom=0;right=0;editable=1;overflow=hidden;whiteSpace=wrap;html=1;" vertex="1" parent="W6q4LjrihfKNPNCk5p_2-85">
          <mxGeometry width="30" height="30" as="geometry">
            <mxRectangle width="30" height="30" as="alternateBounds" />
          </mxGeometry>
        </mxCell>
        <mxCell id="W6q4LjrihfKNPNCk5p_2-87" value="" style="shape=partialRectangle;connectable=0;fillColor=none;top=0;left=0;bottom=0;right=0;align=left;spacingLeft=6;overflow=hidden;whiteSpace=wrap;html=1;" vertex="1" parent="W6q4LjrihfKNPNCk5p_2-85">
          <mxGeometry x="30" width="150" height="30" as="geometry">
            <mxRectangle width="150" height="30" as="alternateBounds" />
          </mxGeometry>
        </mxCell>
        <mxCell id="W6q4LjrihfKNPNCk5p_2-91" value="Basica" style="shape=table;startSize=30;container=1;collapsible=1;childLayout=tableLayout;fixedRows=1;rowLines=0;fontStyle=1;align=center;resizeLast=1;html=1;" vertex="1" parent="W6q4LjrihfKNPNCk5p_2-123">
          <mxGeometry x="40" y="200" width="180" height="60" as="geometry" />
        </mxCell>
        <mxCell id="W6q4LjrihfKNPNCk5p_2-92" value="" style="shape=tableRow;horizontal=0;startSize=0;swimlaneHead=0;swimlaneBody=0;fillColor=none;collapsible=0;dropTarget=0;points=[[0,0.5],[1,0.5]];portConstraint=eastwest;top=0;left=0;right=0;bottom=1;" vertex="1" parent="W6q4LjrihfKNPNCk5p_2-91">
          <mxGeometry y="30" width="180" height="30" as="geometry" />
        </mxCell>
        <mxCell id="W6q4LjrihfKNPNCk5p_2-93" value="PK,FK" style="shape=partialRectangle;connectable=0;fillColor=none;top=0;left=0;bottom=0;right=0;fontStyle=1;overflow=hidden;whiteSpace=wrap;html=1;" vertex="1" parent="W6q4LjrihfKNPNCk5p_2-92">
          <mxGeometry width="50" height="30" as="geometry">
            <mxRectangle width="50" height="30" as="alternateBounds" />
          </mxGeometry>
        </mxCell>
        <mxCell id="W6q4LjrihfKNPNCk5p_2-94" value="id" style="shape=partialRectangle;connectable=0;fillColor=none;top=0;left=0;bottom=0;right=0;align=left;spacingLeft=6;fontStyle=5;overflow=hidden;whiteSpace=wrap;html=1;" vertex="1" parent="W6q4LjrihfKNPNCk5p_2-92">
          <mxGeometry x="50" width="130" height="30" as="geometry">
            <mxRectangle width="130" height="30" as="alternateBounds" />
          </mxGeometry>
        </mxCell>
        <mxCell id="W6q4LjrihfKNPNCk5p_2-101" value="Estandar" style="shape=table;startSize=30;container=1;collapsible=1;childLayout=tableLayout;fixedRows=1;rowLines=0;fontStyle=1;align=center;resizeLast=1;html=1;" vertex="1" parent="W6q4LjrihfKNPNCk5p_2-123">
          <mxGeometry x="260" y="200" width="180" height="60" as="geometry" />
        </mxCell>
        <mxCell id="W6q4LjrihfKNPNCk5p_2-102" value="" style="shape=tableRow;horizontal=0;startSize=0;swimlaneHead=0;swimlaneBody=0;fillColor=none;collapsible=0;dropTarget=0;points=[[0,0.5],[1,0.5]];portConstraint=eastwest;top=0;left=0;right=0;bottom=1;" vertex="1" parent="W6q4LjrihfKNPNCk5p_2-101">
          <mxGeometry y="30" width="180" height="30" as="geometry" />
        </mxCell>
        <mxCell id="W6q4LjrihfKNPNCk5p_2-103" value="PK,FK" style="shape=partialRectangle;connectable=0;fillColor=none;top=0;left=0;bottom=0;right=0;fontStyle=1;overflow=hidden;whiteSpace=wrap;html=1;" vertex="1" parent="W6q4LjrihfKNPNCk5p_2-102">
          <mxGeometry width="50" height="30" as="geometry">
            <mxRectangle width="50" height="30" as="alternateBounds" />
          </mxGeometry>
        </mxCell>
        <mxCell id="W6q4LjrihfKNPNCk5p_2-104" value="id" style="shape=partialRectangle;connectable=0;fillColor=none;top=0;left=0;bottom=0;right=0;align=left;spacingLeft=6;fontStyle=5;overflow=hidden;whiteSpace=wrap;html=1;" vertex="1" parent="W6q4LjrihfKNPNCk5p_2-102">
          <mxGeometry x="50" width="130" height="30" as="geometry">
            <mxRectangle width="130" height="30" as="alternateBounds" />
          </mxGeometry>
        </mxCell>
        <mxCell id="W6q4LjrihfKNPNCk5p_2-105" value="Premium" style="shape=table;startSize=30;container=1;collapsible=1;childLayout=tableLayout;fixedRows=1;rowLines=0;fontStyle=1;align=center;resizeLast=1;html=1;" vertex="1" parent="W6q4LjrihfKNPNCk5p_2-123">
          <mxGeometry x="480" y="200" width="180" height="60" as="geometry" />
        </mxCell>
        <mxCell id="W6q4LjrihfKNPNCk5p_2-106" value="" style="shape=tableRow;horizontal=0;startSize=0;swimlaneHead=0;swimlaneBody=0;fillColor=none;collapsible=0;dropTarget=0;points=[[0,0.5],[1,0.5]];portConstraint=eastwest;top=0;left=0;right=0;bottom=1;" vertex="1" parent="W6q4LjrihfKNPNCk5p_2-105">
          <mxGeometry y="30" width="180" height="30" as="geometry" />
        </mxCell>
        <mxCell id="W6q4LjrihfKNPNCk5p_2-107" value="PK,FK" style="shape=partialRectangle;connectable=0;fillColor=none;top=0;left=0;bottom=0;right=0;fontStyle=1;overflow=hidden;whiteSpace=wrap;html=1;" vertex="1" parent="W6q4LjrihfKNPNCk5p_2-106">
          <mxGeometry width="50" height="30" as="geometry">
            <mxRectangle width="50" height="30" as="alternateBounds" />
          </mxGeometry>
        </mxCell>
        <mxCell id="W6q4LjrihfKNPNCk5p_2-108" value="id" style="shape=partialRectangle;connectable=0;fillColor=none;top=0;left=0;bottom=0;right=0;align=left;spacingLeft=6;fontStyle=5;overflow=hidden;whiteSpace=wrap;html=1;" vertex="1" parent="W6q4LjrihfKNPNCk5p_2-106">
          <mxGeometry x="50" width="130" height="30" as="geometry">
            <mxRectangle width="130" height="30" as="alternateBounds" />
          </mxGeometry>
        </mxCell>
        <mxCell id="W6q4LjrihfKNPNCk5p_2-110" style="edgeStyle=orthogonalEdgeStyle;rounded=0;orthogonalLoop=1;jettySize=auto;html=1;exitX=0;exitY=0.5;exitDx=0;exitDy=0;entryX=1;entryY=0.5;entryDx=0;entryDy=0;endArrow=none;startFill=0;" edge="1" parent="W6q4LjrihfKNPNCk5p_2-123" source="W6q4LjrihfKNPNCk5p_2-79" target="W6q4LjrihfKNPNCk5p_2-92">
          <mxGeometry relative="1" as="geometry" />
        </mxCell>
        <mxCell id="W6q4LjrihfKNPNCk5p_2-111" style="edgeStyle=orthogonalEdgeStyle;rounded=0;orthogonalLoop=1;jettySize=auto;html=1;exitX=0;exitY=0.5;exitDx=0;exitDy=0;entryX=0;entryY=0.5;entryDx=0;entryDy=0;endArrow=none;startFill=0;" edge="1" parent="W6q4LjrihfKNPNCk5p_2-123" source="W6q4LjrihfKNPNCk5p_2-79" target="W6q4LjrihfKNPNCk5p_2-102">
          <mxGeometry relative="1" as="geometry" />
        </mxCell>
        <mxCell id="W6q4LjrihfKNPNCk5p_2-113" style="edgeStyle=orthogonalEdgeStyle;rounded=0;orthogonalLoop=1;jettySize=auto;html=1;exitX=0;exitY=0.5;exitDx=0;exitDy=0;entryX=0;entryY=0.5;entryDx=0;entryDy=0;endArrow=none;startFill=0;" edge="1" parent="W6q4LjrihfKNPNCk5p_2-123" source="W6q4LjrihfKNPNCk5p_2-79" target="W6q4LjrihfKNPNCk5p_2-106">
          <mxGeometry relative="1" as="geometry">
            <Array as="points">
              <mxPoint x="240" y="85" />
              <mxPoint x="240" y="180" />
              <mxPoint x="460" y="180" />
              <mxPoint x="460" y="245" />
            </Array>
          </mxGeometry>
        </mxCell>
        <mxCell id="W6q4LjrihfKNPNCk5p_2-114" value="(1:1)" style="text;html=1;align=center;verticalAlign=middle;resizable=0;points=[];autosize=1;strokeColor=none;fillColor=none;" vertex="1" parent="W6q4LjrihfKNPNCk5p_2-123">
          <mxGeometry x="300" y="360" width="50" height="30" as="geometry" />
        </mxCell>
        <mxCell id="W6q4LjrihfKNPNCk5p_2-115" value="(0:1)" style="text;html=1;align=center;verticalAlign=middle;resizable=0;points=[];autosize=1;strokeColor=none;fillColor=none;" vertex="1" parent="W6q4LjrihfKNPNCk5p_2-123">
          <mxGeometry x="140" y="520" width="50" height="30" as="geometry" />
        </mxCell>
        <mxCell id="W6q4LjrihfKNPNCk5p_2-116" value="(0:1)" style="text;html=1;align=center;verticalAlign=middle;resizable=0;points=[];autosize=1;strokeColor=none;fillColor=none;" vertex="1" parent="W6q4LjrihfKNPNCk5p_2-123">
          <mxGeometry x="300" y="520" width="50" height="30" as="geometry" />
        </mxCell>
        <mxCell id="W6q4LjrihfKNPNCk5p_2-117" value="(0:1)" style="text;html=1;align=center;verticalAlign=middle;resizable=0;points=[];autosize=1;strokeColor=none;fillColor=none;" vertex="1" parent="W6q4LjrihfKNPNCk5p_2-123">
          <mxGeometry x="510" y="520" width="50" height="30" as="geometry" />
        </mxCell>
        <mxCell id="W6q4LjrihfKNPNCk5p_2-122" style="edgeStyle=orthogonalEdgeStyle;rounded=0;orthogonalLoop=1;jettySize=auto;html=1;exitX=0;exitY=0.5;exitDx=0;exitDy=0;entryX=1;entryY=0.5;entryDx=0;entryDy=0;endArrow=none;startFill=0;" edge="1" parent="W6q4LjrihfKNPNCk5p_2-123" source="W6q4LjrihfKNPNCk5p_2-121" target="W6q4LjrihfKNPNCk5p_2-57">
          <mxGeometry relative="1" as="geometry" />
        </mxCell>
        <mxCell id="W6q4LjrihfKNPNCk5p_2-121" value="id" style="ellipse;whiteSpace=wrap;html=1;fillColor=#dae8fc;strokeColor=#6c8ebf;" vertex="1" parent="W6q4LjrihfKNPNCk5p_2-123">
          <mxGeometry x="440" y="315" width="40" height="30" as="geometry" />
        </mxCell>
      </root>
    </mxGraphModel>
  </diagram>
</mxfile>
